<?xml version="1.0" encoding="UTF-8" standalone="no"?>
<!-- Created with Inkscape (http://www.inkscape.org/) -->

<svg
   version="1.1"
   id="svg97"
   width="447.86536"
   height="496.3443"
   viewBox="0 0 447.86536 496.3443"
   sodipodi:docname="path317.svg"
   inkscape:version="1.4.2 (ebf0e940, 2025-05-08)"
   xmlns:inkscape="http://www.inkscape.org/namespaces/inkscape"
   xmlns:sodipodi="http://sodipodi.sourceforge.net/DTD/sodipodi-0.dtd"
   xmlns="http://www.w3.org/2000/svg"
   xmlns:svg="http://www.w3.org/2000/svg">
  <defs
     id="defs101" />
  <sodipodi:namedview
     id="namedview99"
     pagecolor="#ffffff"
     bordercolor="#000000"
     borderopacity="0.25"
     inkscape:showpageshadow="2"
     inkscape:pageopacity="0.0"
     inkscape:pagecheckerboard="0"
     inkscape:deskcolor="#d1d1d1"
     showgrid="true"
     inkscape:zoom="1.2175573"
     inkscape:cx="137.57053"
     inkscape:cy="370.82445"
     inkscape:window-width="2544"
     inkscape:window-height="1286"
     inkscape:window-x="8"
     inkscape:window-y="33"
     inkscape:window-maximized="0"
     inkscape:current-layer="g103">
    <inkscape:grid
       id="grid3"
       units="px"
       originx="0"
       originy="0"
       spacingx="1"
       spacingy="1"
       empcolor="#0099e5"
       empopacity="0.30196078"
       color="#0099e5"
       opacity="0.14901961"
       empspacing="5"
       enabled="true"
       visible="true" />
  </sodipodi:namedview>
  <g
     inkscape:groupmode="layer"
     inkscape:label="Image"
     id="g103"
     transform="translate(-351.28717,69.507172)">
    <path
       style="fill:#000000"
       d="m 641.212,306.56961 c -0.011,-67.68254 -0.4217,-123.02816 -0.9389,-126.60515 -1.3084,-9.05044 -6.6916,-19.75369 -13.2071,-26.25958 -7.9808,-7.96896 -13.5557,-9.58649 -35.937,-10.42697 -22.8522,-0.85816 -26.8758,-0.0905 -33.1522,6.32539 -8.5897,8.7805 -8.7417,9.69976 -8.7648,53.00333 -0.011,20.74214 -0.4288,40.53915 -0.9283,43.99336 -1.9242,13.30609 -13.707,30.5077 -25.4005,37.08216 -9.8983,5.56514 -20.1853,7.77372 -28.6467,6.15039 -13.7111,-2.63046 -26.9192,-12.72789 -34.0268,-26.01293 l -3.4775,-6.5 -0.3046,-63 c -0.2142,-44.30042 0.035,-64.78091 0.8392,-69 3.9165,-20.5449 19.6506,-44.181344 38.9185,-58.465244 7.6036,-5.63681 21.4106,-12.80587 30.5468,-15.86095 15.1107,-5.05291 19.1153,-5.46997 55.5,-5.78019 39.0619,-0.33305 45.0677,0.24413 63.8227,6.13351 44.9033,14.10045 76.3582,48.0568 88.3068,95.329554 l 2.8706,11.35669 v 99.57953 c 0,97.30595 -0.047,99.74612 -2.0475,106.87613 -7.1676,25.54376 -23.7273,45.50639 -46.2717,55.78021 -10.3983,4.73863 -20.1186,6.55076 -35.1387,6.55076 h -12.5421 z"
       id="path2" />
    <path
       style="fill:#000000"
       d="M 103.5505,430.75407 C 83.420574,428.1716 54.493984,414.03488 36.974884,398.21789 c -24.8849,-22.46716 -40.6939101,-49.80473 -47.31784,-81.8239 -2.04055,-9.86373 -2.07334,-12.51792 -2.40642,-194.77159 -0.32206,-176.223809 -0.25555,-184.805279 1.43784,-185.499989 0.97653,-0.40063 11.22551994,-0.71615 22.77552,-0.70117 23.23101,0.0301 27.56579,0.78719 38.99999,6.81124 9.0454,4.76551 20.38531,16.4803 24.84035,25.66152 6.99081,14.4071 6.54901,3.90939 7.07042,167.999989 0.31887,100.34881 0.82186,150.28197 1.55126,153.99567 2.76788,14.09261 14.1988,29.0391 27.000756,35.3048 l 6.53721,3.19953 47.50001,0.5 47.5,0.5 7.59316,3.71214 c 19.14248,9.3584 30.85848,31.11104 27.89208,51.78652 -3.1213,21.7558 -21.64604,40.70179 -44.48524,45.49694 -5.58593,1.17279 -15.6864,1.44763 -50,1.36054 -23.65,-0.06 -46.11106,-0.50825 -49.91348,-0.99606 z"
       id="path316" />
  </g>
</svg>
